HIERARCHY
ROOT root
{
	OFFSET	0	13.1	24.9
	CHANNELS 6  Xposition Yposition Zposition Xrotation Yrotation Zrotation
	JOINT spine_1
	{
		OFFSET	0	9.99999	0
		CHANNELS 3  Xrotation Yrotation Zrotation
		JOINT spine_2
		{
			OFFSET	0	112	-10
			CHANNELS 3  Xrotation Yrotation Zrotation
			JOINT spine_3
			{
				OFFSET	0	206.5	19.3
				CHANNELS 3  Xrotation Yrotation Zrotation
				JOINT spine_4
				{
					OFFSET	0	110.4	14.6
					CHANNELS 3  Xrotation Yrotation Zrotation
					JOINT neck_1
					{
						OFFSET	0	71.8	-50.3
						CHANNELS 3  Xrotation Yrotation Zrotation
						JOINT neck_2
						{
							OFFSET	0	86.2	-25.8
							CHANNELS 3  Xrotation Yrotation Zrotation
							JOINT head_ee
							{
								OFFSET	0	179.8	-8.7
								CHANNELS 3  Xrotation Yrotation Zrotation
								End Site
								{
									OFFSET	1	0	0
								}
							}
						}
					}
					JOINT left_clavicle
					{
						OFFSET	-43.2	22.4	-70.8
						CHANNELS 3  Xrotation Yrotation Zrotation
						JOINT left_shoulder
						{
							OFFSET	-93.9	-5.79999	48.7
							CHANNELS 3  Xrotation Yrotation Zrotation
							JOINT left_elbow
							{
								OFFSET	-291.4	-30.8	15.2
								CHANNELS 3  Xrotation Yrotation Zrotation
								JOINT left_lowarm_twist
								{
									OFFSET	-110.7	-3.89999	13.6
									CHANNELS 3  Xrotation Yrotation Zrotation
									JOINT left_hand
									{
										OFFSET	-110.7	-3.89999	13.6
										CHANNELS 3  Xrotation Yrotation Zrotation
										JOINT left_ee
										{
											OFFSET	-80.8	-5.10001	12.1
											CHANNELS 3  Xrotation Yrotation Zrotation
											End Site
											{
												OFFSET	1	0	0
											}
										}
									}
								}
							}
						}
					}
					JOINT right_clavicle
					{
						OFFSET	43.2	22.4	-70.8
						CHANNELS 3  Xrotation Yrotation Zrotation
						JOINT right_shoulder
						{
							OFFSET	93.9	-5.79999	48.7
							CHANNELS 3  Xrotation Yrotation Zrotation
							JOINT right_elbow
							{
								OFFSET	291.4	-30.8	15.2
								CHANNELS 3  Xrotation Yrotation Zrotation
								JOINT right_lowarm_twist
								{
									OFFSET	110.7	-3.89999	13.6
									CHANNELS 3  Xrotation Yrotation Zrotation
									JOINT right_hand
									{
										OFFSET	110.7	-3.89999	13.6
										CHANNELS 3  Xrotation Yrotation Zrotation
										JOINT right_ee
										{
											OFFSET	80.8	-5.10001	12.1
											CHANNELS 3  Xrotation Yrotation Zrotation
											End Site
											{
												OFFSET	1	0	0
											}
										}
									}
								}
							}
						}
					}
				}
			}
		}
	}
	JOINT left_hip
	{
		OFFSET	-82.8	-127.5	0.300001
		CHANNELS 3  Xrotation Yrotation Zrotation
		JOINT left_knee
		{
			OFFSET	-28.2	-396.7	2.2
			CHANNELS 3  Xrotation Yrotation Zrotation
			JOINT left_ankle
			{
				OFFSET	-11.7	-411.3	35.4
				CHANNELS 3  Xrotation Yrotation Zrotation
				JOINT left_toes
				{
					OFFSET	0	-60	-88.6
					CHANNELS 3  Xrotation Yrotation Zrotation
					JOINT left_foot_ee
					{
						OFFSET	-22.5	-16.5	-42.2
						CHANNELS 3  Xrotation Yrotation Zrotation
						End Site
						{
							OFFSET	1	0	0
						}
					}
				}
			}
		}
	}
	JOINT right_hip
	{
		OFFSET	82.8	-127.5	0.300001
		CHANNELS 3  Xrotation Yrotation Zrotation
		JOINT right_knee
		{
			OFFSET	28.2	-396.7	2.2
			CHANNELS 3  Xrotation Yrotation Zrotation
			JOINT right_ankle
			{
				OFFSET	11.7	-411.3	35.4
				CHANNELS 3  Xrotation Yrotation Zrotation
				JOINT right_toes
				{
					OFFSET	0	-60	-88.6
					CHANNELS 3  Xrotation Yrotation Zrotation
					JOINT right_foot_ee
					{
						OFFSET	22.5	-16.5	-42.2
						CHANNELS 3  Xrotation Yrotation Zrotation
						End Site
						{
							OFFSET	1	0	0
						}
					}
				}
			}
		}
	}
}
MOTION
Frames: 6
Frame Time: 0.02
3085.27 746.765 -353.733 -173.276 -56.5331 -162.478 2.935 -0.871288 -6.13342 2.95578 -0.479999 -6.17621 3.00141 0.507253 -6.17404 2.94857 -0.472276 -6.1768 -10.0274 6.34681 11.5284 -9.66475 4.12912 12.7868 -0.0 0.0 -0.0 9.23284 10.0735 17.4263 -12.7997 -19.4593 65.809 3.06542 -56.6218 1.65159 -6.51953 -0.274814 0.786366 -0.910127 10.2919 -1.56089 -0.0 0.0 -0.0 -2.68039 -18.2642 1.93231 -12.0024 17.1852 -62.3707 0.544141 15.0858 -0.0720525 30.797 -0.0410362 3.88689 3.12867 19.8242 -12.3864 0.0 0.0 0.0 10.1616 -17.1585 -7.93876 -11.3343 0.298253 1.71104 42.6331 26.1586 -5.45517 -28.4506 0.0 0.0 -0.0 0.0 -0.0 18.0717 -9.33995 -6.5466 -4.28142 -0.152449 -0.639231 -13.995 12.5492 -2.24933 8.6437 -0.0 -0.0 0.0 0.0 0.0 
3089.27 747.893 -346.642 -171.587 -56.7151 -160.86 3.31539 -0.904781 -6.16725 3.33639 -0.511285 -6.21209 3.38344 0.4403 -6.2175 3.32995 -0.545221 -6.20921 -10.2714 6.67884 11.6643 -9.90227 4.7205 13.002 -0.0 0.0 -0.0 9.12439 9.89446 17.2427 -13.4909 -18.7444 66.283 3.13645 -57.2215 1.71111 -6.18497 -0.258541 0.746799 -0.93426 9.52298 -2.05303 -0.0 0.0 -0.0 -2.27986 -18.3049 1.31505 -11.0725 17.451 -62.0865 0.458144 12.7869 -0.0513365 31.8733 -0.00466491 4.01955 2.92773 18.6625 -11.6046 0.0 0.0 0.0 10.4304 -16.786 -8.37056 -12.3529 0.308368 1.86699 42.3533 25.8141 -5.4169 -26.8818 0.0 0.0 -0.0 0.0 -0.0 16.8857 -8.66545 -7.83494 1.1181 0.0476539 0.164955 -13.9512 10.7176 -2.21574 6.06281 -0.0 -0.0 0.0 0.0 0.0 
3097.54 745.83 -343.17 -171.039 -58.0036 -160.042 3.34849 -1.04942 -6.24984 3.36996 -0.650413 -6.30366 3.43279 0.310479 -6.32941 3.3776 -0.691002 -6.29936 -9.54225 7.67181 11.0513 -9.22026 6.84187 12.622 -0.0 0.0 -0.0 9.11229 10.0022 17.2107 -13.6291 -19.5886 66.978 3.21507 -57.8631 1.77745 -5.18588 -0.211331 0.628094 -0.746923 9.86861 -0.700537 -0.0 0.0 -0.0 -2.31107 -18.7497 1.28403 -11.012 17.4278 -61.5249 0.407566 11.4146 -0.0407329 32.1425 0.00481977 4.05262 2.92551 17.8935 -11.9654 0.0 0.0 0.0 10.5263 -16.5277 -8.76014 -12.6117 0.310496 1.90664 41.9064 26.127 -5.38702 -25.743 0.0 0.0 -0.0 0.0 -0.0 15.5604 -7.93853 -8.84031 5.3425 0.256574 0.779188 -11.3182 9.66033 -1.78098 4.84038 -0.0 -0.0 0.0 0.0 0.0 
3105.52 748.479 -333.361 -171.959 -58.4923 -160.861 3.16381 -0.993619 -6.2064 3.18503 -0.597468 -6.25678 3.24274 0.376912 -6.27386 3.18838 -0.616673 -6.25493 -12.14 7.56478 11.5478 -11.7927 6.92542 13.1802 -0.0 0.0 -0.0 9.04152 10.1431 17.068 -14.0102 -19.2303 67.1419 3.2823 -58.3942 1.83454 -4.82823 -0.194935 0.585405 -0.707008 10.1027 -0.343994 -0.0 0.0 -0.0 -2.48932 -19.6916 1.38185 -10.4294 17.6767 -61.9487 0.474283 13.2218 -0.0549683 32.9796 0.0353086 4.15517 2.93276 17.3261 -12.2906 0.0 0.0 0.0 8.95075 -15.9956 -8.982 -12.8382 0.312212 1.94136 41.5586 25.9519 -5.34825 -25.0682 0.0 0.0 -0.0 0.0 -0.0 14.5888 -8.45743 -8.80214 3.0022 0.135222 0.440762 -6.6729 8.76486 -1.03728 6.10613 -0.0 -0.0 0.0 0.0 0.0 
3118.34 750.543 -323.099 -172.556 -58.432 -161.458 3.22508 -0.949459 -6.04716 3.24523 -0.563471 -6.09508 3.29767 0.379715 -6.10923 3.24611 -0.588053 -6.09276 -11.9871 7.72624 11.357 -11.6545 7.32019 13.0342 -0.0 0.0 -0.0 8.82483 11.7562 16.5282 -15.2668 -19.1444 67.8127 3.42529 -59.4728 1.95703 -5.32136 -0.217611 0.644238 -0.644957 10.2674 0.123518 -0.0 0.0 -0.0 -2.47805 -19.1887 1.45641 -9.85302 17.3808 -62.3803 0.435979 12.1873 -0.046544 33.8474 0.0684997 4.26101 2.82095 16.2041 -12.0687 0.0 0.0 0.0 9.17678 -15.4379 -9.36064 -16.3262 0.321291 2.47635 39.659 25.918 -5.16553 -23.9291 0.0 0.0 -0.0 0.0 -0.0 13.4437 -8.59596 -8.96126 1.7569 0.0763248 0.258781 -3.13296 8.75203 -0.483504 7.08588 -0.0 -0.0 0.0 0.0 0.0 
3124.46 749.177 -315.575 -173.152 -58.4039 -162.194 3.21318 -0.844885 -5.99135 3.23302 -0.462638 -6.03276 3.27437 0.472757 -6.03198 3.22396 -0.484035 -6.03109 -12.6553 8.06113 11.5407 -12.319 7.99984 13.3398 -0.0 0.0 -0.0 8.64545 13.0318 16.0903 -15.7246 -19.177 68.2587 3.59708 -60.6833 2.10593 -5.12449 -0.208498 0.620773 -0.601854 10.4453 0.474879 -0.0 0.0 -0.0 -2.55887 -19.3734 1.5435 -9.99094 17.4442 -62.5091 0.49952 13.8987 -0.0608857 34.0324 0.0757812 4.28351 2.94954 15.4024 -13.3322 0.0 0.0 0.0 8.87959 -14.3039 -9.21596 -18.026 0.313911 2.73704 39.221 25.3892 -5.10502 -23.185 0.0 0.0 -0.0 0.0 -0.0 12.5733 -9.14961 -8.97417 1.08409 0.0461569 0.159952 0.183109 8.29198 0.0279642 8.20699 -0.0 -0.0 0.0 0.0 0.0 
